<?xml version="1.0" standalone="no"?>
<!DOCTYPE svg PUBLIC "-//W3C//DTD SVG 20010904//EN"
 "http://www.w3.org/TR/2001/REC-SVG-20010904/DTD/svg10.dtd">
<svg version="1.0" xmlns="http://www.w3.org/2000/svg"
 width="174.000000pt" height="106.000000pt" viewBox="0 0 174.000000 106.000000"
 preserveAspectRatio="xMidYMid meet">

<g transform="translate(0.000000,106.000000) scale(0.100000,-0.100000)"
fill="#000000" stroke="none">
<path d="M750 999 c-7 -11 -9 -27 -6 -35 9 -23 -14 -26 -115 -15 -52 6 -119
13 -149 15 l-55 6 75 -21 c41 -11 115 -22 164 -24 86 -4 89 -5 130 -43 63 -58
145 -83 291 -89 150 -6 221 8 393 77 85 35 142 51 172 52 40 0 42 1 20 10 -38
15 -99 2 -186 -38 -92 -42 -144 -59 -234 -74 -126 -23 -302 -5 -386 38 -47 24
-94 73 -77 79 47 17 85 83 48 83 -8 0 -15 -8 -15 -18 0 -18 -29 -52 -43 -52
-12 0 -8 45 5 58 9 9 8 12 -5 12 -9 0 -21 -9 -27 -21z"/>
<path d="M189 980 c-51 -9 -118 -40 -138 -64 -19 -22 -4 -20 31 5 36 26 108
49 157 50 20 0 45 4 56 9 26 11 -40 11 -106 0z"/>
<path d="M353 973 c15 -2 37 -2 50 0 12 2 0 4 -28 4 -27 0 -38 -2 -22 -4z"/>
<path d="M402 699 c-52 -26 -96 -78 -117 -138 -32 -93 -14 -120 42 -65 21 20
30 33 21 30 -23 -7 -23 6 2 53 19 39 72 91 92 91 18 0 0 -59 -43 -137 -30 -53
-55 -85 -93 -113 -61 -46 -97 -103 -78 -122 14 -14 59 25 119 104 20 25 53 54
74 64 43 19 54 39 13 24 -14 -6 -24 -7 -22 -3 105 205 102 268 -10 212z"/>
<path d="M1437 628 c-22 -24 -51 -67 -64 -96 -26 -56 -72 -95 -107 -90 -35 5
-27 23 22 48 36 19 48 31 50 53 3 21 -1 27 -17 27 -36 0 -65 -17 -117 -69 -49
-48 -74 -62 -74 -42 0 5 11 23 25 39 24 29 34 72 17 72 -12 0 -83 -53 -106
-79 -11 -11 -24 -21 -29 -21 -6 0 1 13 16 28 32 33 35 52 8 52 -11 0 -28 -15
-41 -35 -28 -45 -70 -79 -83 -66 -9 9 -3 23 37 76 5 7 6 20 3 29 -5 13 -14 16
-42 10 -23 -4 -35 -2 -35 5 0 8 -5 9 -19 1 -19 -10 -34 -40 -35 -69 -1 -17
-53 -57 -62 -48 -9 8 8 42 38 80 15 19 19 30 12 37 -8 8 -31 -7 -78 -50 -60
-55 -86 -71 -86 -54 0 4 16 24 35 45 39 44 44 59 17 59 -18 0 -72 -48 -72 -64
0 -9 -30 -35 -41 -36 -3 0 -4 20 -3 45 3 51 -5 59 -46 50 -52 -11 -90 -51 -90
-94 0 -66 29 -76 108 -36 61 30 60 30 64 3 4 -32 30 -33 65 -4 l30 25 -5 -24
c-10 -55 53 -37 123 34 45 48 78 57 51 15 -21 -30 -17 -78 5 -82 9 -2 30 8 47
22 l30 26 15 -23 15 -22 47 45 c43 42 45 43 30 14 -16 -33 -12 -64 10 -64 6 0
30 13 52 29 l40 29 10 -29 c8 -20 18 -29 33 -29 26 0 72 23 90 45 12 14 15 13
26 -14 18 -43 56 -39 112 12 32 30 27 42 -8 17 -68 -48 -91 0 -32 64 46 50 72
95 72 126 0 31 -19 24 -63 -22z m3 -57 c-25 -36 -36 -41 -19 -8 16 31 31 48
37 43 2 -3 -6 -19 -18 -35z m-140 -41 c0 -9 -32 -30 -46 -30 -4 0 1 9 11 20
19 21 35 26 35 10z m-750 -34 c-5 -13 -6 -27 -2 -31 7 -7 -17 -25 -35 -25 -20
0 -15 31 9 57 28 30 40 29 28 -1z"/>
<path d="M972 210 c-30 -4 -82 -22 -117 -39 l-63 -31 -63 16 c-79 20 -137 14
-318 -33 -149 -38 -258 -47 -301 -23 -22 12 -80 22 -80 14 0 -9 67 -36 113
-45 62 -12 233 -1 182 12 -29 8 -28 8 7 6 20 -2 35 0 33 3 -6 10 90 31 111 24
14 -4 15 -3 6 4 -11 7 -8 11 10 15 34 10 45 8 28 -4 -12 -8 -9 -9 10 -4 42 11
177 18 215 11 26 -5 35 -11 31 -22 -3 -8 -9 -21 -12 -29 -9 -21 40 -65 74 -65
54 0 69 41 27 80 -29 28 -23 40 39 73 37 20 55 22 181 21 154 -1 176 -6 427
-103 103 -40 180 -52 193 -31 4 6 -5 8 -22 4 -29 -6 -59 3 -170 50 -91 38
-316 93 -408 99 -44 3 -104 1 -133 -3z m-154 -167 c9 -7 11 -13 5 -13 -17 0
-43 29 -43 48 1 14 3 14 12 -3 6 -11 18 -26 26 -32z m32 32 c7 -9 10 -19 6
-22 -8 -9 -38 9 -44 25 -5 17 23 15 38 -3z"/>
</g>
</svg>
